# xmcd
#
# Track frame offsets:
#	300
#	14969
#	27470
#	43544
#	57839
#	67392
#	80061
#	95766
#	103095
#	112229
#	122663
#	136230
#
# Disc length: 1978 seconds
#
# Revision: 0
# Processed by: cddbd v1.5.2PL0 Copyright (c) Steve Scherf et al.
# Submitted via: audiograbber 1.83.01
#
DISCID=bb07b60c
DTITLE=Th' Legendary Shack Shakers - Pandelirium
DYEAR=2006
DGENRE=Psychobilly
TTITLE0=Ichabod!
TTITLE1=South Electric Eyes
TTITLE2=No Such Thing
TTITLE3=Iron Lung Oompah
TTITLE4=Bottom Road
TTITLE5=Somethin' In The Water
TTITLE6=Jipsy Valentine
TTITLE7=Thin The Herd
TTITLE8=Monkey On The Doghouse
TTITLE9=The Ballad Of Speedy Atkins
TTITLE10=Bible, Candle And Skull
TTITLE11=Nellie Bell
EXTD=
EXTT0=
EXTT1=
EXTT2=
EXTT3=
EXTT4=
EXTT5=
EXTT6=
EXTT7=
EXTT8=
EXTT9=
EXTT10=
EXTT11=
PLAYORDER=
